<svg width="100%" height="auto" viewBox="0 0 523 91" fill="none" xmlns="http://www.w3.org/2000/svg">
  <defs>
    <linearGradient id="rainbow-stroke" x1="0" y1="0" x2="1" y2="0">
  <stop offset="0%" stop-color="#ff5252"/>
  <stop offset="20%" stop-color="#ffeb3b"/>
  <stop offset="40%" stop-color="#4fc3f7"/>
  <stop offset="60%" stop-color="#81c784"/>
  <stop offset="80%" stop-color="#ff00cc"/>
  <stop offset="100%" stop-color="#ff5252"/>
  <animateTransform attributeName="gradientTransform" type="translate"
    values="0,0;1,0;0,0"
    keyTimes="0;0.5;1"
    dur="4s"
    repeatCount="indefinite"/>
</linearGradient>
  </defs>
  <g>
    <!-- Only keep ONE set of paths, each with fill and stroke -->
    <path d="M6.09979 42.1406V36.1406H0.0997925V30.1406H12.0998V36.1406H30.0998V24.1406H6.09979V18.1406H0.0997925V6.14062H6.09979V0.140625H36.0998V6.14062H42.0998V12.1406H30.0998V6.14062H12.0998V18.1406H36.0998V24.1406H42.0998V36.1406H36.0998V42.1406H6.09979Z" fill="white" stroke="url(#rainbow-stroke)" stroke-width="2.5"/>
    <path d="M54.0998 42.1406V36.1406H48.0998V0.140625H60.0998V36.1406H78.0998V0.140625H90.0998V36.1406H84.0998V42.1406H54.0998Z" fill="white" stroke="url(#rainbow-stroke)" stroke-width="2.5"/>
    <path d="M96.0998 42.1406V0.140625H132.1V6.14062H138.1V24.1406H132.1V30.1406H108.1V42.1406H96.0998ZM108.1 24.1406H126.1V6.14062H108.1V24.1406Z" fill="white" stroke="url(#rainbow-stroke)" stroke-width="2.5"/>
    <path d="M144.1 42.1406V0.140625H186.1V6.14062H156.1V18.1406H180.1V24.1406H156.1V36.1406H186.1V42.1406H144.1Z" fill="white" stroke="url(#rainbow-stroke)" stroke-width="2.5"/>
    <path d="M192.1 42.1406V0.140625H228.1V6.14062H234.1V24.1406H222.1V30.1406H228.1V36.1406H234.1V42.1406H216.1V36.1406H210.1V30.1406H204.1V42.1406H192.1ZM204.1 24.1406H216.1V18.1406H222.1V6.14062H204.1V24.1406Z" fill="white" stroke="url(#rainbow-stroke)" stroke-width="2.5"/>
    <path d="M294.1 42.1406V36.1406H288.1V30.1406H300.1V36.1406H318.1V24.1406H294.1V18.1406H288.1V6.14062H294.1V0.140625H324.1V6.14062H330.1V12.1406H318.1V6.14062H300.1V18.1406H324.1V24.1406H330.1V36.1406H324.1V42.1406H294.1Z" fill="white" stroke="url(#rainbow-stroke)" stroke-width="2.5"/>
    <path d="M336.1 42.1406V0.140625H348.1V6.14062H354.1V12.1406H360.1V6.14062H366.1V0.140625H378.1V42.1406H366.1V18.1406H360.1V30.1406H354.1V18.1406H348.1V42.1406H336.1Z" fill="white" stroke="url(#rainbow-stroke)" stroke-width="2.5"/>
    <path d="M384.1 42.1406V12.1406H390.1V6.14062H396.1V0.140625H414.1V6.14062H420.1V12.1406H426.1V42.1406H414.1V30.1406H396.1V42.1406H384.1ZM396.1 24.1406H414.1V12.1406H408.1V6.14062H402.1V12.1406H396.1V24.1406Z" fill="white" stroke="url(#rainbow-stroke)" stroke-width="2.5"/>
    <path d="M438.1 42.1406V36.1406H432.1V30.1406H444.1V36.1406H462.1V24.1406H438.1V18.1406H432.1V6.14062H438.1V0.140625H468.1V6.14062H474.1V12.1406H462.1V6.14062H444.1V18.1406H468.1V24.1406H474.1V36.1406H468.1V42.1406H438.1Z" fill="white" stroke="url(#rainbow-stroke)" stroke-width="2.5"/>
    <path d="M480.1 42.1406V0.140625H492.1V18.1406H510.1V0.140625H522.1V42.1406H510.1V24.1406H492.1V42.1406H480.1Z" fill="white" stroke="url(#rainbow-stroke)" stroke-width="2.5"/>
    <path d="M78.0998 90.1406V84.1406H72.0998V78.1406H84.0998V84.1406H102.1V72.1406H78.0998V66.1406H72.0998V54.1406H78.0998V48.1406H108.1V54.1406H114.1V60.1406H102.1V54.1406H84.0998V66.1406H108.1V72.1406H114.1V84.1406H108.1V90.1406H78.0998Z" fill="white" stroke="url(#rainbow-stroke)" stroke-width="2.5"/>
    <path d="M120.1 90.1406V48.1406H132.1V66.1406H150.1V48.1406H162.1V90.1406H150.1V72.1406H132.1V90.1406H120.1Z" fill="white" stroke="url(#rainbow-stroke)" stroke-width="2.5"/>
    <path d="M174.1 90.1406V84.1406H168.1V54.1406H174.1V48.1406H204.1V54.1406H210.1V84.1406H204.1V90.1406H174.1ZM180.1 84.1406H198.1V54.1406H180.1V84.1406Z" fill="white" stroke="url(#rainbow-stroke)" stroke-width="2.5"/>
    <path d="M222.1 90.1406V84.1406H216.1V48.1406H228.1V72.1406H234.1V48.1406H240.1V72.1406H246.1V48.1406H258.1V84.1406H252.1V90.1406H246.1V84.1406H240.1V78.1406H234.1V84.1406H228.1V90.1406H222.1Z" fill="white" stroke="url(#rainbow-stroke)" stroke-width="2.5"/>
    <path d="M264.1 90.1406V48.1406H294.1V54.1406H300.1V60.1406H306.1V78.1406H300.1V84.1406H294.1V90.1406H264.1ZM276.1 84.1406H288.1V78.1406H294.1V60.1406H288.1V54.1406H276.1V84.1406Z" fill="white" stroke="url(#rainbow-stroke)" stroke-width="2.5"/>
    <path d="M318.1 90.1406V84.1406H312.1V54.1406H318.1V48.1406H348.1V54.1406H354.1V84.1406H348.1V90.1406H318.1ZM324.1 84.1406H342.1V54.1406H324.1V84.1406Z" fill="white" stroke="url(#rainbow-stroke)" stroke-width="2.5"/>
    <path d="M366.1 90.1406V84.1406H360.1V48.1406H372.1V72.1406H378.1V48.1406H384.1V72.1406H390.1V48.1406H402.1V84.1406H396.1V90.1406H390.1V84.1406H384.1V78.1406H378.1V84.1406H372.1V90.1406H366.1Z" fill="white" stroke="url(#rainbow-stroke)" stroke-width="2.5"/>
    <path d="M408.1 90.1406V48.1406H420.1V54.1406H426.1V60.1406H432.1V66.1406H438.1V48.1406H450.1V90.1406H438.1V78.1406H432.1V72.1406H426.1V66.1406H420.1V90.1406H408.1Z" fill="white" stroke="url(#rainbow-stroke)" stroke-width="2.5"/>
  </g>\n</svg>